<?xml version="1.0" standalone="no"?>
<!DOCTYPE svg PUBLIC "-//W3C//DTD SVG 20010904//EN"
 "http://www.w3.org/TR/2001/REC-SVG-20010904/DTD/svg10.dtd">
<svg version="1.0" xmlns="http://www.w3.org/2000/svg"
 width="512.000000pt" height="512.000000pt" viewBox="0 0 512.000000 512.000000"
 preserveAspectRatio="xMidYMid meet">
<metadata>
Created by potrace 1.14, written by Peter Selinger 2001-2017
</metadata>
<g transform="translate(0.000000,512.000000) scale(0.100000,-0.100000)"
fill="#000000" stroke="none">
<path d="M2110 5109 c0 -5 -4 -8 -8 -5 -23 14 -201 -159 -291 -285 -50 -69
-143 -127 -273 -170 -50 -17 -121 -46 -159 -64 -37 -18 -70 -30 -73 -27 -3 3
-6 0 -6 -6 0 -7 -7 -12 -15 -12 -8 0 -15 -4 -15 -10 0 -5 -5 -10 -12 -10 -11
0 -108 -58 -118 -71 -3 -3 -16 -12 -29 -19 -13 -6 -57 -36 -99 -66 -41 -30
-81 -54 -88 -54 -8 0 -14 -4 -14 -8 0 -7 -56 -34 -90 -44 -5 -1 -21 -10 -127
-68 -60 -33 -137 -98 -170 -145 -70 -96 -164 -235 -169 -249 -4 -9 -30 -53
-60 -99 -30 -45 -54 -88 -54 -94 0 -7 -5 -13 -10 -13 -6 0 -9 -3 -8 -7 1 -5
-13 -38 -31 -75 -17 -37 -32 -70 -32 -73 0 -10 -97 -191 -123 -229 -14 -22
-29 -49 -31 -60 -3 -12 -4 -495 -3 -1074 l3 -1054 40 -14 c49 -18 174 -16 259
3 33 7 72 16 86 18 14 3 32 8 40 11 8 4 24 8 35 9 11 2 48 10 82 19 34 9 66
16 70 15 4 -1 22 3 38 10 17 7 39 15 50 17 11 2 31 6 45 9 14 3 39 8 55 10 17
3 40 7 53 10 12 3 31 7 43 10 12 2 26 9 33 14 6 5 16 10 21 10 26 2 105 34
105 42 0 5 3 8 8 7 16 -3 62 15 62 25 0 6 3 8 6 5 3 -4 38 10 77 30 40 20 78
37 85 38 8 1 22 10 33 20 10 9 19 14 19 9 0 -4 6 -2 14 4 11 9 82 35 129 47 4
1 8 2 10 4 17 15 742 20 897 6 47 -4 103 -9 125 -11 22 -1 65 -6 95 -10 86
-11 111 -14 175 -20 158 -14 202 -21 278 -44 98 -29 188 -43 208 -31 12 8 22
83 10 76 -3 -2 -16 0 -29 5 -28 10 -21 29 9 24 13 -3 33 8 57 31 28 27 32 35
17 32 -20 -4 -74 36 -63 47 3 4 25 1 48 -5 33 -9 45 -8 58 2 13 11 15 11 8 -2
-5 -8 5 1 22 20 16 19 29 36 28 38 -2 1 -18 4 -37 6 -47 4 -92 24 -84 36 7 12
35 13 35 2 0 -4 10 -8 23 -9 12 0 33 -3 47 -6 14 -2 31 0 38 5 15 13 16 52 2
79 -9 16 -56 48 -77 50 -5 1 -12 3 -18 4 -28 9 -70 16 -71 13 0 -2 -8 5 -18
14 -17 18 -18 48 -2 60 5 3 -9 15 -32 25 -23 10 -42 21 -42 25 0 5 -6 8 -13 8
-8 0 -24 11 -37 25 -12 13 -26 22 -30 20 -4 -2 -16 11 -26 30 -10 19 -22 35
-26 35 -4 0 -5 6 -2 14 3 7 -2 20 -10 29 -8 8 -12 18 -8 22 4 4 -3 3 -14 -3
-12 -6 -24 -8 -28 -5 -3 3 -6 2 -6 -4 0 -6 -13 -9 -30 -8 -16 1 -30 -1 -30 -5
0 -4 -17 -7 -37 -8 -21 0 -60 -2 -86 -4 -27 -2 -51 0 -54 5 -3 5 -11 6 -19 3
-7 -3 -16 -1 -20 5 -3 6 -12 8 -20 5 -8 -3 -14 -2 -14 2 0 8 -64 34 -76 32 -4
-1 -10 4 -15 12 -5 7 -12 13 -16 13 -4 1 -18 6 -31 13 -12 7 -27 10 -32 7 -6
-3 -10 -2 -10 2 0 5 -8 9 -17 10 -10 1 -36 4 -58 8 -75 11 -130 17 -157 18
-16 1 -28 4 -28 7 0 4 -17 6 -37 5 -21 -1 -42 1 -48 4 -5 3 -51 6 -100 6 -50
1 -95 3 -100 6 -6 3 -26 5 -45 4 -19 -1 -39 1 -45 4 -11 6 -32 9 -92 13 -24 1
-43 5 -43 9 0 4 -11 6 -25 4 -14 -1 -28 2 -31 6 -3 5 -15 8 -27 8 -28 -1 -48
4 -66 15 -10 7 -12 6 -6 -4 6 -10 4 -11 -6 -4 -8 5 -16 9 -19 10 -3 0 -12 3
-20 7 -45 17 -91 28 -100 22 -5 -3 -10 -1 -10 4 0 6 -3 10 -7 9 -5 -1 -19 4
-32 11 -17 9 -21 10 -16 1 4 -7 -4 -5 -17 4 -14 9 -28 13 -31 9 -4 -3 -7 -1
-7 6 0 7 -4 9 -10 6 -5 -3 -10 -2 -10 2 0 5 -10 10 -22 10 -13 1 -24 7 -26 13
-2 5 -8 8 -13 4 -5 -3 -9 2 -9 11 0 9 -4 14 -9 11 -10 -7 -8 54 3 72 4 6 4 12
0 12 -4 0 0 6 9 13 9 6 19 23 21 37 3 14 5 27 6 30 2 3 2 8 1 13 0 4 4 7 10 7
5 0 7 5 4 10 -3 6 -2 10 3 10 5 0 9 6 10 13 4 36 11 82 13 82 8 0 17 315 9
320 -6 4 -3 235 5 290 5 42 12 80 15 80 1 0 3 10 6 23 2 12 11 34 20 47 9 14
12 25 8 25 -5 0 -1 5 9 11 9 5 17 16 17 23 0 8 6 19 14 26 8 6 12 19 9 27 -5
12 -3 14 7 8 10 -6 12 -4 7 8 -3 10 -2 17 4 17 6 0 7 5 4 10 -3 6 -1 10 5 10
7 0 10 7 6 15 -3 8 -2 14 2 12 4 -1 9 3 11 8 2 6 12 16 23 23 10 7 16 18 13
23 -4 5 -1 9 5 9 6 0 8 5 5 10 -3 6 -1 10 5 10 6 0 8 5 4 12 -4 6 -3 8 3 5 5
-3 25 10 44 30 19 20 28 32 20 28 -9 -5 -12 -4 -7 3 4 6 14 8 23 5 11 -4 14
-3 9 5 -4 7 -3 12 2 12 12 0 22 -25 28 -70 9 -66 84 -201 149 -266 63 -63 182
-130 275 -154 53 -14 156 -19 173 -8 9 6 8 8 -3 8 -9 0 -22 6 -29 12 -6 7 -15
13 -19 13 -23 0 -72 73 -87 130 -5 17 -9 35 -11 40 -13 46 -16 71 -19 145 -2
56 2 94 11 111 13 26 14 46 2 65 -26 40 -34 92 -23 142 7 29 12 55 13 58 1 24
28 63 53 78 24 14 49 17 132 15 111 -3 187 6 187 24 0 5 3 8 6 5 3 -3 31 2 64
12 39 12 78 16 120 13 61 -4 62 -4 54 19 -15 46 -8 116 18 179 14 31 88 121
88 105 0 -4 9 2 20 12 15 14 32 18 68 16 68 -5 86 -11 114 -39 l25 -25 59 26
c53 23 91 29 147 23 29 -3 75 -56 87 -97 5 -20 10 -59 10 -87 l0 -50 26 55
c28 58 35 141 16 190 -5 14 -10 29 -10 34 -1 11 -58 48 -112 71 -25 11 -48 23
-51 28 -3 5 -10 8 -15 8 -5 0 -23 11 -40 24 -39 31 -53 80 -58 195 -4 94 -9
113 -43 150 -13 14 -23 28 -23 32 0 5 -6 8 -13 8 -8 0 -22 9 -32 20 -10 11
-20 18 -23 15 -3 -2 -17 4 -32 15 -27 19 -46 20 -419 20 -269 0 -391 -3 -391
-11z m666 -398 c7 0 14 -12 16 -25 6 -30 -9 -38 -72 -41 -56 -3 -87 -15 -129
-50 -33 -29 -75 -98 -64 -109 4 -3 1 -6 -5 -6 -6 0 -9 -11 -6 -24 5 -28 -21
-60 -43 -52 -8 3 -18 6 -22 6 -19 0 -3 101 24 155 59 115 160 165 301 146z
m-1206 -955 c0 -2 -8 -10 -17 -17 -16 -13 -17 -12 -4 4 13 16 21 21 21 13z
m-1014 -2473 c30 -14 54 -31 54 -36 0 -6 3 -8 6 -4 7 7 64 -42 64 -55 0 -5 -6
-8 -12 -7 -7 1 -25 -1 -39 -5 -14 -4 -34 -9 -45 -11 -10 -2 -19 -4 -19 -5 0
-1 -9 -3 -20 -4 -11 -2 -63 -13 -115 -25 -52 -13 -103 -24 -113 -26 -9 -2 -21
-6 -25 -9 -14 -8 -160 -19 -176 -13 -13 5 -13 13 1 64 23 82 61 116 163 146
107 32 197 29 276 -10z"/>
<path d="M2826 4388 c3 -4 0 -8 -5 -8 -6 0 -11 -6 -11 -14 0 -8 -6 -16 -12
-19 -7 -2 1 -8 17 -12 26 -7 89 -55 71 -55 -4 0 2 -9 12 -20 10 -11 18 -33 17
-48 -2 -33 12 -47 48 -50 27 -2 27 -1 21 45 -3 25 -12 64 -20 87 -14 39 -22
63 -23 77 -2 12 -35 22 -78 24 -23 1 -40 -2 -37 -7z"/>
<path d="M3111 4369 c-26 -22 -27 -36 -1 -44 11 -3 20 -12 20 -20 0 -7 4 -15
8 -17 4 -1 17 -21 29 -44 19 -37 23 -91 8 -131 -10 -28 5 -11 22 25 9 20 20
39 24 42 4 3 4 32 0 65 -10 75 -13 86 -29 103 -7 8 -10 17 -7 22 10 17 -53 16
-74 -1z"/>
<path d="M3275 4110 c3 -5 8 -10 11 -10 2 0 4 5 4 10 0 6 -5 10 -11 10 -5 0
-7 -4 -4 -10z"/>
<path d="M3306 4097 c3 -9 11 -15 17 -14 7 1 11 -3 10 -10 -1 -6 4 -17 13 -23
12 -11 13 -9 6 11 -5 12 -19 29 -31 37 -19 13 -21 13 -15 -1z"/>
<path d="M2936 4063 c-46 -12 -59 -54 -42 -128 11 -46 0 -76 -27 -73 -35 5
-86 62 -93 106 -11 62 -178 108 -280 77 -24 -7 -45 -10 -48 -7 -4 3 -6 1 -6
-5 0 -10 -43 -32 -71 -36 -8 -2 -18 -5 -24 -8 -12 -7 -97 -4 -141 5 -28 5 -33
3 -38 -18 -7 -28 0 -78 19 -142 8 -26 11 -67 8 -102 -7 -81 -7 -123 -1 -152 4
-14 7 -25 8 -25 1 0 3 -7 5 -16 1 -9 12 -37 23 -63 12 -25 21 -49 21 -53 -1
-3 3 -9 8 -12 4 -3 24 -27 43 -53 19 -26 43 -50 53 -53 9 -4 17 -11 17 -16 0
-10 126 -72 148 -72 6 0 12 -3 12 -7 0 -3 8 -6 18 -7 9 -1 31 -4 47 -7 66 -15
83 -16 145 -17 36 0 80 5 98 10 37 11 37 11 59 11 15 0 15 2 -1 19 -12 13 -15
27 -11 41 6 19 12 21 48 16 23 -3 58 -10 77 -16 50 -15 258 -11 299 6 18 7 30
18 26 24 -6 10 -28 9 -140 -6 -79 -10 -192 -5 -235 10 -15 5 -58 15 -95 20
-11 2 -20 4 -20 5 0 3 -31 10 -60 14 -31 5 -155 67 -155 78 0 5 -7 9 -16 9 -8
0 -13 4 -9 9 3 5 -3 12 -12 15 -10 4 -34 25 -53 47 -19 23 -45 52 -57 66 -13
13 -23 30 -23 38 0 8 -5 15 -11 15 -5 0 -7 5 -4 10 3 6 2 10 -2 10 -9 0 -43
72 -43 93 -1 7 -8 3 -18 -8 -16 -19 -24 -21 -59 -17 -18 3 -16 57 2 76 8 8 15
19 15 25 0 6 5 11 11 11 7 0 18 8 25 18 9 13 29 17 83 19 68 2 71 1 77 -23 8
-32 -10 -52 -45 -50 -27 2 -28 1 -19 -26 6 -15 14 -31 19 -34 5 -3 7 -10 4
-15 -4 -5 -1 -9 4 -9 6 0 11 -7 11 -15 0 -8 4 -15 9 -15 5 0 14 -13 21 -29 14
-34 131 -161 148 -161 7 0 12 -4 12 -9 0 -8 62 -37 100 -47 165 -43 211 -50
307 -48 90 2 142 7 193 19 8 2 15 4 15 5 0 1 11 3 24 6 30 5 152 66 146 72 -3
3 3 11 13 18 16 13 16 13 0 14 -10 0 -18 8 -18 17 0 9 -3 13 -7 10 -7 -8 -39
34 -35 46 1 4 -2 7 -7 7 -5 0 -12 10 -16 23 -4 12 -8 24 -10 27 -1 3 -4 12 -8
20 -3 8 -7 79 -9 157 -2 104 -7 145 -17 155 -11 11 -13 10 -9 -2 7 -22 -48
-72 -75 -68 -17 2 -22 10 -23 33 0 17 4 37 9 46 12 20 3 47 -19 56 -8 3 -32 1
-52 -5 -56 -17 -112 -23 -112 -12 0 6 -7 10 -15 10 -8 0 -15 8 -15 17 0 9 -3
13 -6 10 -4 -3 -16 0 -28 8 -20 15 -52 17 -90 8z m52 -91 c13 -18 28 -30 34
-26 7 4 8 3 4 -4 -16 -27 78 -47 119 -26 14 7 25 10 25 7 0 -3 7 0 15 7 22 18
65 4 65 -21 0 -43 -68 -77 -151 -76 -42 0 -63 7 -96 29 -48 33 -93 86 -90 108
8 49 41 50 75 2z"/>
<path d="M3361 3994 c0 -11 3 -14 6 -6 3 7 2 16 -1 19 -3 4 -6 -2 -5 -13z"/>
<path d="M3492 3404 c-8 -8 -11 -21 -8 -29 6 -17 -49 -126 -70 -138 -8 -4 -25
-18 -39 -30 -27 -24 -27 -18 -1 -146 3 -14 11 -28 17 -31 6 -4 10 -10 10 -14
-1 -3 -1 -7 0 -8 0 -2 2 -11 4 -21 2 -10 7 -26 11 -35 4 -9 9 -26 11 -36 2
-11 7 -24 12 -30 5 -6 7 -21 5 -34 -2 -13 0 -21 6 -17 5 3 7 -8 5 -26 -2 -18
-1 -37 3 -43 6 -11 12 -38 13 -66 0 -8 3 -22 6 -30 3 -8 6 -24 7 -35 1 -11 5
-26 10 -34 7 -10 6 -12 -3 -6 -10 5 -11 3 -4 -11 5 -11 9 -58 8 -106 0 -49 2
-88 5 -88 3 0 7 -19 7 -42 1 -65 9 -106 24 -125 12 -14 12 -16 0 -8 -25 14 22
-56 52 -78 15 -11 27 -27 27 -36 0 -8 3 -12 6 -9 3 3 20 -9 37 -27 18 -18 42
-36 55 -39 12 -4 22 -11 22 -15 0 -8 40 -29 52 -27 4 0 14 -8 22 -19 9 -11 16
-15 16 -10 0 7 3 7 8 0 11 -16 120 -85 134 -85 6 0 8 -3 5 -6 -4 -4 10 -16 31
-26 48 -25 116 -71 120 -80 2 -5 8 -8 13 -8 5 0 66 -38 137 -83 70 -46 131
-84 136 -85 5 0 12 -4 15 -9 10 -14 95 -68 104 -65 4 1 7 -2 7 -8 0 -5 7 -10
15 -10 8 0 15 -5 15 -12 0 -6 3 -9 6 -5 3 3 44 -19 90 -48 46 -30 84 -51 84
-47 0 4 4 2 8 -4 11 -16 82 -31 127 -27 136 14 151 12 191 -14 22 -15 42 -31
46 -37 4 -6 8 11 8 37 0 35 -6 54 -21 70 -11 12 -23 22 -27 22 -4 1 -16 6 -27
12 -11 6 -24 11 -30 11 -23 1 -14 22 9 22 29 0 76 -19 76 -32 0 -4 5 -8 10 -8
7 0 10 24 8 62 -3 60 -4 63 -38 79 -47 23 -73 33 -83 30 -5 -1 -7 4 -5 11 7
22 49 21 90 -2 l38 -21 0 49 c0 38 -4 52 -17 58 -10 4 -21 6 -25 6 -5 -1 -8 2
-8 7 0 6 -9 8 -20 6 -12 -2 -24 3 -30 14 -8 16 -5 18 23 16 18 -1 42 -7 55
-14 21 -11 22 -10 22 18 0 24 -7 34 -30 46 -16 9 -30 13 -30 10 0 -3 -17 3
-37 14 -21 10 -42 20 -48 21 -5 1 -25 8 -44 16 -18 8 -37 14 -42 14 -5 0 -17
4 -27 9 -43 24 -125 61 -134 61 -5 0 -16 7 -25 15 -8 8 -19 13 -24 10 -5 -4
-9 -1 -9 4 0 6 -5 11 -10 11 -6 0 -36 16 -66 35 -30 19 -59 35 -65 35 -6 0 -8
4 -5 8 2 4 -8 13 -23 20 -15 7 -37 21 -49 32 -12 11 -26 20 -32 20 -5 0 -10 5
-10 10 0 6 -7 10 -16 10 -8 0 -12 5 -9 10 3 6 0 10 -7 10 -12 0 -30 13 -96 70
-13 11 -27 20 -31 20 -5 0 -24 15 -44 34 -20 18 -37 33 -39 32 -6 -4 -115 114
-110 119 3 3 -1 5 -8 5 -7 0 -10 3 -7 6 4 4 -3 15 -14 25 -11 9 -21 21 -21 26
-1 11 -32 77 -39 83 -10 8 -61 124 -64 145 -2 11 -8 36 -15 55 -6 19 -14 49
-16 65 -14 83 -90 268 -126 306 -7 8 -25 30 -39 49 -15 19 -60 70 -101 113
-41 42 -72 77 -69 77 3 0 -1 5 -9 10 -19 13 -22 12 -38 -6z"/>
<path d="M3399 2163 c-1 -5 -1 -12 0 -16 1 -5 -3 -6 -7 -3 -5 3 -18 -4 -28
-16 -11 -12 -13 -18 -6 -14 6 4 12 2 12 -4 0 -6 4 -9 9 -6 5 4 11 2 13 -3 1
-5 9 -11 17 -13 8 -2 32 -20 52 -41 24 -25 40 -34 44 -27 4 7 -10 28 -34 51
-22 22 -41 49 -41 60 0 13 -4 18 -12 13 -8 -5 -9 -2 -5 9 3 10 2 17 -3 17 -6
0 -11 -3 -11 -7z"/>
<path d="M3185 2050 c-3 -5 -2 -18 4 -27 10 -21 51 -59 51 -50 0 4 9 -1 20
-11 12 -9 23 -15 27 -14 3 2 9 0 12 -5 11 -17 82 -53 92 -48 5 4 9 1 9 -6 0
-7 3 -10 6 -6 4 3 13 -1 21 -9 8 -8 19 -12 24 -9 5 4 9 2 9 -3 0 -8 28 -20 47
-20 3 0 10 -7 15 -16 5 -9 13 -14 19 -11 5 4 9 1 9 -5 0 -6 5 -8 10 -5 6 3 10
1 10 -6 0 -7 3 -10 6 -6 8 7 68 -51 70 -67 0 -6 2 -13 3 -16 9 -19 13 -56 14
-125 1 -61 -3 -86 -17 -107 -17 -25 -79 -70 -101 -73 -28 -3 -93 -27 -116 -42
-20 -14 -25 -25 -23 -48 4 -49 13 -78 26 -87 7 -4 9 -8 4 -8 -6 0 -1 -6 10
-14 13 -10 23 -11 31 -4 7 6 13 8 13 5 0 -3 15 -1 33 4 17 6 41 12 52 14 11 1
20 3 20 5 0 3 46 9 97 13 56 4 55 4 62 41 3 15 10 34 16 41 6 7 10 17 9 21 -1
5 4 23 11 39 7 17 12 34 12 38 -1 4 5 21 13 37 9 17 13 30 9 30 -4 0 -1 7 6
15 7 9 10 18 7 22 -4 3 -3 11 2 17 7 10 25 74 36 128 2 10 -1 21 -7 24 -7 5
-8 2 -4 -7 4 -8 -1 -4 -10 9 -9 12 -23 22 -30 22 -8 0 -14 4 -14 8 0 5 -18 17
-40 28 -22 10 -40 23 -40 27 0 5 -4 5 -10 2 -5 -3 -10 -2 -10 3 0 6 -18 19
-40 31 -22 11 -40 18 -40 15 0 -2 -10 4 -22 15 -11 11 -25 18 -30 15 -4 -3 -8
0 -8 5 0 6 -7 11 -17 11 -9 0 -14 3 -10 6 6 6 -117 70 -137 72 -5 0 -12 5 -15
10 -9 14 -129 71 -135 64 -3 -3 -6 0 -6 7 0 7 -4 9 -10 6 -5 -3 -10 -2 -10 2
0 12 -38 14 -45 3z"/>
<path d="M3510 2012 c0 -8 86 -62 99 -62 5 0 12 -7 15 -16 3 -8 10 -12 16 -9
5 3 10 2 10 -3 0 -5 21 -20 48 -33 26 -13 49 -26 52 -30 11 -12 105 -73 109
-70 2 1 8 -4 13 -13 5 -9 13 -14 19 -11 5 4 9 1 9 -4 0 -6 6 -11 13 -11 7 0
18 -9 25 -20 7 -11 19 -20 28 -20 9 0 24 -8 33 -18 21 -22 74 -57 84 -54 4 1
7 -5 7 -15 0 -9 3 -14 6 -10 4 3 21 -5 39 -18 17 -14 35 -22 38 -18 4 3 7 1 7
-5 0 -7 5 -12 11 -12 6 0 17 -7 26 -15 8 -8 19 -13 24 -10 5 4 9 2 9 -2 0 -10
62 -49 73 -45 4 1 7 -2 7 -6 0 -8 33 -27 55 -31 6 -1 14 -9 18 -17 5 -8 12
-12 18 -9 5 4 9 1 9 -4 0 -6 5 -11 10 -11 6 0 21 -9 32 -20 14 -13 24 -16 29
-9 3 6 9 2 12 -11 3 -12 10 -19 15 -16 6 3 13 -1 16 -9 3 -8 9 -15 13 -14 16
2 53 -14 53 -23 0 -5 5 -6 10 -3 6 3 10 1 10 -4 0 -6 6 -11 14 -11 8 0 16 -4
18 -9 2 -5 9 -11 17 -13 7 -2 25 -13 39 -25 14 -13 30 -23 37 -23 7 0 18 -7
25 -15 7 -8 16 -12 21 -9 5 3 9 2 9 -3 1 -9 69 -53 85 -55 6 -1 15 -8 22 -17
7 -9 13 -12 13 -8 0 4 6 3 13 -3 30 -27 146 -97 151 -92 3 3 6 0 6 -7 0 -7 5
-9 10 -6 15 9 13 105 -3 105 -7 0 -27 14 -45 30 -18 17 -38 30 -43 30 -6 0 -7
5 -4 10 3 6 1 10 -4 10 -6 0 -27 16 -46 35 -34 33 -38 34 -59 19 -34 -21 -85
-34 -92 -23 -3 5 -10 7 -15 4 -5 -4 -9 -2 -9 4 0 9 -40 27 -49 22 -2 -2 -7 1
-10 6 -3 4 -22 16 -41 26 -53 28 -93 51 -105 60 -41 30 -84 54 -89 49 -3 -3
-6 0 -6 6 0 7 -5 12 -10 12 -6 0 -21 9 -32 20 -17 15 -24 17 -30 8 -5 -9 -8
-8 -8 4 0 10 -10 20 -24 24 -14 3 -27 12 -30 20 -3 8 -15 14 -26 14 -11 0 -20
5 -20 11 0 5 -4 7 -10 4 -5 -3 -10 -2 -10 2 0 12 -56 44 -64 36 -3 -3 -6 -1
-6 6 0 7 -15 18 -32 26 -18 7 -46 25 -63 39 -16 14 -33 26 -37 26 -5 0 -25 16
-45 35 -20 19 -41 35 -46 35 -5 0 -29 16 -53 36 -24 20 -44 32 -44 28 0 -5 -5
-1 -11 9 -5 9 -15 17 -20 17 -6 0 -17 7 -26 15 -8 8 -18 13 -23 10 -4 -3 -11
2 -14 11 -4 9 -9 14 -12 11 -4 -3 -15 3 -27 13 -11 11 -24 17 -29 14 -4 -3 -8
-1 -8 5 0 6 -11 13 -25 17 -14 3 -25 10 -25 15 0 5 -10 14 -22 19 -24 10 -60
31 -68 40 -3 3 -17 13 -32 23 -29 18 -48 22 -48 9z"/>
<path d="M3513 1712 c30 -33 27 -137 -4 -176 -29 -36 -91 -99 -85 -86 4 8 0 6
-8 -4 -9 -11 -16 -17 -16 -13 0 11 -36 -28 -43 -46 -5 -15 -3 -14 27 1 19 9
32 20 30 24 -4 6 25 19 55 24 7 1 25 13 39 26 14 13 22 16 17 8 -5 -8 4 -4 19
10 41 37 53 68 52 136 -1 63 -16 91 -53 97 -10 1 -25 7 -33 12 -10 5 -8 1 3
-13z"/>
<path d="M3969 1599 c-7 -4 -11 -11 -7 -14 4 -4 -1 -30 -9 -58 -9 -29 -16 -58
-16 -64 0 -7 -5 -13 -10 -13 -5 0 -7 -6 -4 -14 3 -7 0 -19 -6 -25 -6 -6 -8
-11 -5 -11 4 0 1 -15 -7 -34 -8 -18 -11 -36 -8 -40 4 -3 0 -6 -7 -6 -7 0 -10
-3 -7 -7 4 -3 2 -12 -4 -19 -11 -13 -32 -81 -22 -70 3 3 12 1 20 -6 7 -6 16
-8 20 -5 3 4 15 1 27 -5 12 -7 75 -12 151 -13 72 -1 139 -6 150 -12 11 -6 25
-12 30 -12 19 -3 65 -26 65 -33 0 -5 5 -8 10 -8 13 0 52 -35 211 -192 71 -70
129 -125 129 -123 0 3 9 -4 20 -15 12 -12 25 -18 29 -15 5 2 12 -2 15 -11 3
-8 10 -12 16 -9 5 3 10 1 10 -5 0 -6 4 -9 9 -6 5 4 11 3 13 -1 4 -11 80 -49
90 -46 4 2 8 -2 8 -9 0 -6 3 -8 7 -5 3 4 14 0 23 -8 10 -9 35 -18 57 -21 33
-4 43 0 71 27 18 17 33 39 33 48 8 93 4 168 -10 185 -14 17 -14 18 -1 11 8 -4
2 6 -15 24 -28 31 -145 94 -172 94 -7 0 -13 3 -13 7 0 3 -17 16 -37 27 -21 12
-48 31 -60 43 -13 11 -23 18 -23 15 0 -2 -11 5 -24 16 -13 12 -28 21 -33 22
-4 0 -13 7 -20 16 -7 9 -13 12 -13 7 0 -6 -7 -1 -16 10 -8 10 -13 12 -9 4 4
-8 -3 -4 -14 10 -11 14 -21 21 -21 17 0 -5 -7 -2 -15 5 -34 31 -45 38 -45 31
0 -4 -7 1 -15 11 -8 11 -15 17 -15 13 0 -4 -10 1 -22 13 -12 11 -27 20 -34 20
-6 0 -17 7 -24 15 -7 8 -16 12 -21 9 -5 -3 -9 -1 -9 4 0 10 -50 37 -63 33 -5
-1 -6 3 -3 8 5 7 -4 14 -34 24 -3 1 -15 13 -28 27 -13 14 -21 18 -17 10 4 -8
-1 -6 -9 4 -9 11 -16 16 -16 12 0 -4 -7 0 -16 8 -8 9 -20 14 -25 11 -5 -4 -9
-2 -9 4 0 10 -38 27 -52 23 -5 -1 -8 2 -8 7 0 5 -14 20 -32 32 -18 14 -28 17
-24 8 5 -9 3 -8 -6 2 -7 9 -16 17 -20 17 -5 1 -9 2 -10 3 -20 6 -38 5 -49 -2z"/>
<path d="M1717 1314 c-1 -1 -31 -4 -67 -5 -36 -2 -70 -7 -77 -12 -7 -5 -17 -6
-23 -2 -6 4 -17 1 -25 -5 -8 -7 -15 -10 -15 -6 0 3 -16 0 -35 -8 -19 -8 -35
-13 -35 -11 0 3 -9 -3 -20 -13 -12 -9 -24 -17 -28 -18 -26 -3 -62 -18 -62 -26
0 -5 -4 -6 -10 -3 -5 3 -10 1 -10 -6 0 -7 -3 -10 -6 -7 -3 4 -33 -8 -67 -25
-34 -17 -64 -32 -67 -32 -3 -1 -22 -9 -44 -18 -21 -9 -42 -17 -47 -17 -5 0 -9
-5 -9 -11 0 -5 -4 -8 -9 -4 -5 3 -12 1 -16 -5 -4 -6 -11 -8 -16 -5 -5 4 -9 2
-9 -4 0 -5 -15 -13 -32 -16 -18 -4 -37 -10 -43 -13 -5 -4 -19 -7 -30 -9 -11
-1 -36 -4 -55 -8 -19 -3 -45 -7 -58 -9 -28 -4 -35 -11 -39 -39 -2 -12 -8 -23
-13 -25 -6 -2 -10 -12 -10 -22 0 -10 -4 -20 -8 -22 -4 -2 -18 -37 -30 -78 -13
-41 -26 -82 -31 -90 -7 -14 -7 -117 1 -151 5 -21 36 -68 62 -94 71 -72 209
-138 350 -170 21 -4 146 -33 176 -40 8 -2 34 -8 58 -13 23 -5 42 -8 42 -6 0 3
8 1 18 -5 9 -5 35 -11 57 -15 22 -3 51 -8 65 -12 14 -3 35 -7 47 -9 13 -2 40
-6 60 -9 21 -4 72 -9 113 -11 75 -5 134 -11 180 -20 14 -3 34 -7 46 -9 11 -2
54 -7 95 -11 143 -13 198 -20 249 -30 60 -12 189 -18 385 -18 182 0 230 2 255
14 3 1 10 3 15 4 6 1 37 9 70 19 33 10 66 19 73 19 6 0 12 4 12 9 0 5 4 7 8 4
5 -3 20 1 35 9 15 8 27 11 27 7 0 -3 5 -1 12 6 7 7 19 12 28 12 26 0 261 121
254 131 -3 5 1 9 9 9 8 0 18 7 21 16 3 8 10 12 16 9 5 -3 10 -2 10 2 0 5 18
22 41 39 22 16 52 40 67 54 18 18 22 19 12 5 -7 -11 6 -1 28 21 22 23 43 39
46 37 3 -3 8 2 12 11 3 9 13 16 20 16 8 0 17 7 20 15 4 8 10 13 14 10 4 -2 19
6 34 18 25 22 34 23 139 20 98 -2 192 -9 192 -13 0 -2 19 -5 80 -15 77 -12 84
-13 96 -21 7 -4 10 -3 6 3 -4 6 1 14 11 18 15 6 12 11 -18 36 -19 16 -42 29
-52 29 -9 0 -20 5 -23 11 -4 6 -13 8 -21 5 -8 -3 -14 0 -14 6 0 6 -3 8 -6 5
-4 -3 -14 -2 -23 2 -9 5 -41 12 -71 15 -49 5 -73 9 -130 21 -8 2 -19 4 -23 4
-5 1 -7 13 -5 29 3 26 5 27 63 25 54 -1 93 -6 165 -19 14 -3 34 -6 45 -7 11
-2 25 -5 30 -8 6 -3 29 -11 52 -19 25 -7 45 -21 49 -32 3 -10 9 -16 14 -13 5
3 11 -3 13 -12 4 -16 5 -16 6 0 1 20 -68 89 -81 81 -5 -3 -8 -1 -8 4 0 7 -76
47 -110 57 -3 1 -21 8 -40 16 -19 7 -38 13 -41 12 -4 -1 -9 6 -12 16 -10 39
22 54 73 35 19 -7 49 -15 65 -16 17 -2 40 -9 53 -16 12 -7 22 -10 22 -7 0 3
17 -12 38 -35 37 -38 62 -51 62 -31 0 21 -49 60 -123 100 -42 22 -79 41 -82
41 -3 -1 -21 7 -40 16 -37 17 -45 43 -20 64 16 13 90 7 110 -10 5 -4 13 -9 18
-9 4 0 21 -8 37 -16 17 -9 30 -11 30 -5 0 5 -5 10 -11 10 -6 0 -22 14 -36 30
-14 17 -28 29 -30 26 -3 -3 -12 2 -20 10 -8 8 -19 12 -24 9 -5 -4 -9 -1 -9 5
0 6 -4 9 -9 5 -5 -3 -12 -1 -15 4 -3 5 -61 8 -128 8 -74 0 -141 5 -168 13 -25
8 -48 14 -52 16 -5 1 -9 3 -10 4 -12 12 -142 16 -188 7 -14 -3 -38 -8 -55 -12
-16 -3 -37 -8 -45 -12 -20 -8 -59 -12 -144 -16 -60 -2 -108 7 -166 30 -8 4
-17 7 -20 8 -3 1 -21 9 -40 17 -19 9 -38 14 -42 12 -5 -3 -8 0 -8 5 0 6 -6 11
-13 11 -7 0 -23 9 -36 21 -12 12 -28 22 -34 23 -7 2 -19 6 -27 9 -30 13 -82
21 -200 31 -73 7 -150 15 -195 21 -16 3 -55 7 -85 10 -30 3 -73 7 -95 10 -84
10 -710 26 -718 19z"/>
<path d="M4529 756 c-11 -8 -15 -29 -14 -83 1 -62 -2 -76 -22 -99 -12 -15 -20
-31 -16 -37 3 -5 1 -7 -5 -3 -6 3 -13 -2 -17 -13 -12 -38 -96 -55 -175 -37
-14 3 -38 8 -55 10 -16 2 -37 7 -45 10 -24 8 -139 19 -220 19 -91 1 -125 -16
-212 -106 -32 -32 -58 -55 -59 -50 0 4 -5 -3 -11 -17 -6 -14 -10 -28 -10 -32
1 -5 -3 -8 -9 -8 -6 0 -9 -7 -5 -15 3 -8 2 -15 -3 -15 -9 0 -10 -6 -14 -71 -2
-25 -6 -50 -10 -56 -6 -10 93 -59 133 -67 8 -1 35 -8 60 -15 25 -7 52 -14 60
-16 8 -1 33 -6 55 -10 69 -12 174 -14 205 -3 19 6 30 17 30 29 0 10 5 19 12
19 6 0 9 3 6 6 -4 3 12 22 35 42 22 20 58 54 79 75 21 20 43 37 48 37 6 0 10
5 10 10 0 6 6 10 14 10 7 0 25 9 39 20 14 11 32 20 41 20 9 0 16 5 16 10 0 6
3 9 8 9 4 -1 9 -1 12 1 3 1 16 3 29 6 14 2 30 9 38 15 7 6 13 9 13 6 0 -3 15
-1 33 4 17 6 48 12 67 14 45 5 66 32 76 97 4 29 7 55 7 58 0 3 -3 31 -7 63 -6
63 -22 101 -37 92 -5 -4 -9 -2 -9 4 0 5 -9 13 -20 16 -11 4 -33 18 -49 31 -34
28 -79 37 -102 20z"/>
<path d="M4776 566 c2 -58 -1 -118 -7 -132 -5 -15 -6 -31 -2 -35 8 -7 132 37
143 51 3 3 20 12 37 19 18 7 30 17 27 22 -3 5 1 9 10 9 8 0 29 15 47 33 18 17
29 25 24 17 -4 -8 3 -4 18 9 14 12 30 20 36 16 7 -4 11 4 11 19 0 32 -1 32
-43 3 -36 -24 -73 -27 -117 -9 -14 5 -28 8 -32 5 -5 -2 -8 1 -8 6 0 6 -7 11
-15 11 -8 0 -30 9 -49 19 -19 11 -43 21 -53 23 -10 2 -21 7 -24 11 -4 5 -5
-39 -3 -97z"/>
</g>
</svg>
